# xmcd
#
# Track frame offsets: 
#        150
#        30192
#        56845
#        86290
#        98735
#        126787
#        149440
#        172625
#        183255
#        204070
#        230952
#
# Disc length: 3340 seconds
#
# Revision: 2
# Processed by: cddbd v1.5.2PL0 Copyright (c) Steve Scherf et al.
# Submitted via: ExactAudioCopy v0.99pb4
#
DISCID=830d0a0b
DTITLE=Andy Summers - The Golden Wire (1989)
DYEAR=1989
DGENRE=Rock
TTITLE0=A Piece Of Time
TTITLE1=The Golden Wire
TTITLE2=Earthly Pleasures
TTITLE3=Imagine You
TTITLE4=Vigango
TTITLE5=Blues For Snake
TTITLE6=The Island Of Silk
TTITLE7=Journey Through Blue Regions
TTITLE8=Piya Tose
TTITLE9=Rain Forest In Manhattan
TTITLE10=A Thousand Stones
EXTD=A&M records 1975\n394 560-2
EXTT0=
EXTT1=
EXTT2=
EXTT3=
EXTT4=
EXTT5=
EXTT6=
EXTT7=
EXTT8=
EXTT9=
EXTT10=
PLAYORDER=
